<svg version="1.1" xmlns="http://www.w3.org/2000/svg" viewBox="0 0 778 384" width="778" height="384">
  <!-- svg-source:excalidraw -->
  
  <defs>
    <style class="style-fonts">
      @font-face {
        font-family: "Virgil";
        src: url("https://excalidraw.com/Virgil.woff2");
      }
      @font-face {
        font-family: "Cascadia";
        src: url("https://excalidraw.com/Cascadia.woff2");
      }
    </style>
    
  </defs>
  <rect x="0" y="0" width="778" height="384" fill="#ffffff"></rect><g stroke-linecap="round" transform="translate(582 50) rotate(0 93 43.5)"><path d="M21.75 0 M21.75 0 C59.63 0.84, 93.17 0.18, 164.25 0 M21.75 0 C57.6 -0.26, 94.22 -0.69, 164.25 0 M164.25 0 C178.77 -0.81, 185.48 7.77, 186 21.75 M164.25 0 C178.84 -0.47, 187.04 6.15, 186 21.75 M186 21.75 C187.62 34.21, 184.2 48.5, 186 65.25 M186 21.75 C185.46 32.4, 186.35 45.35, 186 65.25 M186 65.25 C184.9 79.82, 179.64 86.47, 164.25 87 M186 65.25 C183.96 79.82, 178.16 89.21, 164.25 87 M164.25 87 C110.93 87.73, 62.48 85.4, 21.75 87 M164.25 87 C116.1 86.91, 67.19 86.27, 21.75 87 M21.75 87 C8.18 87.22, 0.13 80.56, 0 65.25 M21.75 87 C5.98 85.08, -0.42 79.73, 0 65.25 M0 65.25 C1.26 47.3, 0.23 32.36, 0 21.75 M0 65.25 C-0.63 54.08, 1.1 42.21, 0 21.75 M0 21.75 C-1.01 7.02, 7.84 1.59, 21.75 0 M0 21.75 C0.1 5.29, 5.07 2.08, 21.75 0" stroke="#000000" stroke-width="1" fill="none"></path></g><g transform="translate(644.1499996185303 81) rotate(0 30.850000381469727 12.5)"><text x="30.850000381469727" y="0" font-family="Virgil, Segoe UI Emoji" font-size="20px" fill="#000000" text-anchor="middle" style="white-space: pre;" direction="ltr" dominant-baseline="text-before-edge">Server</text></g><g stroke-linecap="round" transform="translate(10 10) rotate(0 97 89)"><path d="M122.5 22.5 M122.5 22.5 C136.49 39.47, 155.44 53.54, 169.5 67.5 M122.5 22.5 C138.43 37.2, 153.64 54.38, 169.5 67.5 M169.5 67.5 C194.87 91.7, 192.14 88.64, 169.5 112.5 M169.5 67.5 C195.66 90.14, 195.02 89.38, 169.5 112.5 M169.5 112.5 C153.36 127.21, 137.36 144.68, 122.5 155.5 M169.5 112.5 C159.61 121.69, 147.2 131.43, 122.5 155.5 M122.5 155.5 C96.22 179.52, 97.66 176.37, 73.5 155.5 M122.5 155.5 C100.14 177.14, 98.31 179.24, 73.5 155.5 M73.5 155.5 C53.07 136.86, 32.28 121.02, 24.5 112.5 M73.5 155.5 C60.34 143.36, 46.74 132.5, 24.5 112.5 M24.5 112.5 C-0.06 88.63, -1.09 90.01, 24.5 67.5 M24.5 112.5 C2.27 90.72, -1.93 88.37, 24.5 67.5 M24.5 67.5 C44.07 48.58, 63.6 34.03, 73.5 22.5 M24.5 67.5 C40.87 52.64, 57.53 35.79, 73.5 22.5 M73.5 22.5 C98.63 -0.5, 99.86 0.11, 122.5 22.5 M73.5 22.5 C97.16 0.83, 98.15 -1.97, 122.5 22.5" stroke="#000000" stroke-width="1" fill="none"></path></g><g transform="translate(79.95000076293945 86.5) rotate(0 27.049999237060547 12.5)"><text x="27.049999237060547" y="0" font-family="Virgil, Segoe UI Emoji" font-size="20px" fill="#000000" text-anchor="middle" style="white-space: pre;" direction="ltr" dominant-baseline="text-before-edge">Client</text></g><g mask="url(#mask-tCro1QV63Kmd1raO1P4dh)" stroke-linecap="round"><g transform="translate(575.203125 66.62061737214196) rotate(0 -195.86841734998856 -0.4369831269565623)"><path d="M0.4 1.11 C-64.63 0.65, -325.98 -1.75, -391.33 -1.99 M-0.85 0.65 C-65.91 0.25, -326.87 -0.41, -392.14 -0.89" stroke="#000000" stroke-width="1" fill="none"></path></g><g transform="translate(575.203125 66.62061737214196) rotate(0 -195.86841734998856 -0.4369831269565623)"><path d="M-26.02 11.58 C-23.56 8.88, -15 7.19, 0.48 2.04 M-27.96 11.99 C-19.55 8.05, -13.76 4.99, 0.12 1.18" stroke="#000000" stroke-width="1" fill="none"></path></g><g transform="translate(575.203125 66.62061737214196) rotate(0 -195.86841734998856 -0.4369831269565623)"><path d="M-25.85 -8.94 C-23.29 -7.46, -14.76 -4.95, 0.48 2.04 M-27.79 -8.53 C-19.54 -7.17, -13.8 -4.92, 0.12 1.18" stroke="#000000" stroke-width="1" fill="none"></path></g></g><mask id="mask-tCro1QV63Kmd1raO1P4dh"><rect x="0" y="0" fill="#fff" width="1066.792694782624" height="167.77127542194063"></rect><rect x="286.908340108688" y="53.545288347242604" fill="#000" width="185" height="25" opacity="1"></rect></mask><g transform="translate(286.908340108688 53.545288347242604) rotate(0 92.42636754132346 12.638345897942799)"><text x="92.5" y="0" font-family="Virgil, Segoe UI Emoji" font-size="20px" fill="#000000" text-anchor="middle" style="white-space: pre;" direction="ltr" dominant-baseline="text-before-edge">https://my-site.com</text></g><g mask="url(#mask-xaFujpWv0FH1zzqZbLqSq)" stroke-linecap="round"><g transform="translate(677.761395084814 156.5955198672939) rotate(0 -105.98425532453797 65.7778783606941)"><path d="M-0.69 1.1 C-36.06 22.89, -177.2 108.36, -212.73 129.74 M1.15 0.62 C-34.24 22.66, -177.16 109.34, -213.12 130.93" stroke="#000000" stroke-width="1" fill="none"></path></g><g transform="translate(677.761395084814 156.5955198672939) rotate(0 -105.98425532453797 65.7778783606941)"><path d="M-192.47 109.33 C-200.48 113.44, -205.94 118.33, -213.42 130.69 M-195.28 107.78 C-201.79 115.4, -207.7 122.81, -214.01 130.99" stroke="#000000" stroke-width="1" fill="none"></path></g><g transform="translate(677.761395084814 156.5955198672939) rotate(0 -105.98425532453797 65.7778783606941)"><path d="M-181.86 126.9 C-192.47 126.39, -200.68 126.74, -213.42 130.69 M-184.67 125.34 C-194.72 127.01, -204.26 128.42, -214.01 130.99" stroke="#000000" stroke-width="1" fill="none"></path></g></g><mask id="mask-xaFujpWv0FH1zzqZbLqSq"><rect x="0" y="0" fill="#fff" width="991.5470019464522" height="387"></rect><rect x="535.8685916539948" y="181.79775993364694" fill="#000" width="70" height="80" opacity="1"></rect></mask><g transform="translate(535.868591653995 181.79775993364694) rotate(0 35.9085481062811 40.57563829434105)"><text x="35" y="0" font-family="Virgil, Segoe UI Emoji" font-size="16px" fill="#000000" text-anchor="middle" style="white-space: pre;" direction="ltr" dominant-baseline="text-before-edge">Response</text><text x="35" y="20" font-family="Virgil, Segoe UI Emoji" font-size="16px" fill="#000000" text-anchor="middle" style="white-space: pre;" direction="ltr" dominant-baseline="text-before-edge">- HTML</text><text x="35" y="40" font-family="Virgil, Segoe UI Emoji" font-size="16px" fill="#000000" text-anchor="middle" style="white-space: pre;" direction="ltr" dominant-baseline="text-before-edge">- CSS</text><text x="35" y="60" font-family="Virgil, Segoe UI Emoji" font-size="16px" fill="#000000" text-anchor="middle" style="white-space: pre;" direction="ltr" dominant-baseline="text-before-edge">- JS</text></g><g stroke-linecap="round" transform="translate(313 288) rotate(0 78 43)"><path d="M21.5 0 M21.5 0 C50.41 -1.63, 79.09 -1.04, 134.5 0 M21.5 0 C62.66 -0.4, 104.28 -0.08, 134.5 0 M134.5 0 C148.74 0.45, 155.27 5.68, 156 21.5 M134.5 0 C150.55 1.7, 156.18 8.32, 156 21.5 M156 21.5 C155.9 37.09, 157.32 52.19, 156 64.5 M156 21.5 C156.82 36.85, 155.91 50.59, 156 64.5 M156 64.5 C154.41 77.95, 148.99 87.68, 134.5 86 M156 64.5 C157.32 79.9, 148.17 84.82, 134.5 86 M134.5 86 C111.22 88.16, 90.62 86.98, 21.5 86 M134.5 86 C102.9 85.85, 70.94 85.1, 21.5 86 M21.5 86 C7.38 85.65, -0.24 79.44, 0 64.5 M21.5 86 C9.38 87.55, 1.83 78.93, 0 64.5 M0 64.5 C0.04 50.85, -2.08 38.39, 0 21.5 M0 64.5 C0.21 52.57, 0.27 38.62, 0 21.5 M0 21.5 C1.12 8.95, 6.54 0.96, 21.5 0 M0 21.5 C-1.45 7.41, 6.36 -0.58, 21.5 0" stroke="#000000" stroke-width="1" fill="none"></path></g><g transform="translate(335.7249984741211 301) rotate(0 55.275001525878906 30)"><text x="55.275001525878906" y="0" font-family="Virgil, Segoe UI Emoji" font-size="16px" fill="#000000" text-anchor="middle" style="white-space: pre;" direction="ltr" dominant-baseline="text-before-edge">JS executes,</text><text x="55.275001525878906" y="20" font-family="Virgil, Segoe UI Emoji" font-size="16px" fill="#000000" text-anchor="middle" style="white-space: pre;" direction="ltr" dominant-baseline="text-before-edge">fetches data,</text><text x="55.275001525878906" y="40" font-family="Virgil, Segoe UI Emoji" font-size="16px" fill="#000000" text-anchor="middle" style="white-space: pre;" direction="ltr" dominant-baseline="text-before-edge">loads UI</text></g><g mask="url(#mask-6gJtPAbMP4tDepMF7q9Li)" stroke-linecap="round"><g transform="translate(312 292.6849867199917) rotate(0 -88.45823375812799 -57.80652706222247)"><path d="M-0.57 -0.42 C-30.19 -19.73, -148.31 -95.96, -177.88 -115.19 M1.33 -1.69 C-28.33 -20.9, -148.33 -95.05, -178.24 -113.95" stroke="#000000" stroke-width="1" fill="none"></path></g><g transform="translate(312 292.6849867199917) rotate(0 -88.45823375812799 -57.80652706222247)"><path d="M-149.6 -105.88 C-158.23 -107.91, -167.61 -109.43, -177.16 -115.05 M-148.21 -108.61 C-156.63 -108.64, -163.21 -110.53, -177.68 -114.43" stroke="#000000" stroke-width="1" fill="none"></path></g><g transform="translate(312 292.6849867199917) rotate(0 -88.45823375812799 -57.80652706222247)"><path d="M-160.47 -88.48 C-166.1 -95.4, -172.38 -101.87, -177.16 -115.05 M-159.07 -91.21 C-164.93 -95.43, -168.85 -101.59, -177.68 -114.43" stroke="#000000" stroke-width="1" fill="none"></path></g></g><mask id="mask-6gJtPAbMP4tDepMF7q9Li"><rect x="0" y="0" fill="#fff" width="590.9838067759215" height="507.30235691362236"></rect><rect x="166.88309661203925" y="225.37630162317635" fill="#000" width="111.25" height="20" opacity="1"></rect></mask><g transform="translate(166.88309661203925 225.37630162317635) rotate(0 56.65866962983276 9.502158034592867)"><text x="55.625" y="0" font-family="Virgil, Segoe UI Emoji" font-size="16px" fill="#000000" text-anchor="middle" style="white-space: pre;" direction="ltr" dominant-baseline="text-before-edge">Finally renders</text></g></svg>