<svg version="1.1" xmlns="http://www.w3.org/2000/svg" viewBox="0 0 979 342" width="979" height="342">
  <!-- svg-source:excalidraw -->
  
  <defs>
    <style class="style-fonts">
      @font-face {
        font-family: "Virgil";
        src: url("https://excalidraw.com/Virgil.woff2");
      }
      @font-face {
        font-family: "Cascadia";
        src: url("https://excalidraw.com/Cascadia.woff2");
      }
    </style>
    
  </defs>
  <rect x="0" y="0" width="979" height="342" fill="#ffffff"></rect><g stroke-linecap="round" transform="translate(832 76) rotate(0 68.5 28.5)"><path d="M14.25 0 M14.25 0 C57.04 -0.07, 96.72 0.07, 122.75 0 M14.25 0 C51.25 0.41, 89.86 1.22, 122.75 0 M122.75 0 C132.78 0.24, 135.45 4.91, 137 14.25 M122.75 0 C132.05 1.62, 134.87 6.66, 137 14.25 M137 14.25 C136.16 24.26, 136.37 34.17, 137 42.75 M137 14.25 C137.45 21.43, 137.6 28.2, 137 42.75 M137 42.75 C136.21 51.79, 131.86 58.48, 122.75 57 M137 42.75 C136.64 54.36, 133.45 57.3, 122.75 57 M122.75 57 C91.45 58.48, 57.87 57.62, 14.25 57 M122.75 57 C92.58 55.64, 63.23 55.58, 14.25 57 M14.25 57 C3.1 57.3, 1.44 54.16, 0 42.75 M14.25 57 C6.62 55.29, -2.04 52.36, 0 42.75 M0 42.75 C-1.17 37.52, -1.41 29.35, 0 14.25 M0 42.75 C1.01 35.03, -0.59 27.11, 0 14.25 M0 14.25 C-1.72 3.14, 3.58 0.31, 14.25 0 M0 14.25 C1.11 6.38, 4.03 -1.84, 14.25 0" stroke="#000000" stroke-width="1" fill="none"></path></g><g transform="translate(842.7874984741211 92) rotate(0 57.712501525878906 12.5)"><text x="57.712501525878906" y="0" font-family="Virgil, Segoe UI Emoji" font-size="20px" fill="#000000" text-anchor="middle" style="white-space: pre;" direction="ltr" dominant-baseline="text-before-edge">Static Files</text></g><g stroke-linecap="round"><g transform="translate(829 103.84155255147198) rotate(0 -78.18490985133218 -0.57919675025218)"><path d="M-0.4 -1.03 C-26.71 -1.24, -131.9 -2.22, -157.97 -2.2 M1.6 1.04 C-24.34 1.05, -129.25 -0.36, -155.76 -1.03" stroke="#000000" stroke-width="1" fill="none"></path></g><g transform="translate(829 103.84155255147198) rotate(0 -78.18490985133218 -0.57919675025218)"><path d="M-30.39 7.39 C-21.47 6.46, -11.03 4.62, -1.02 -2.63 M-28.15 9.42 C-18.36 4.72, -9.51 2.25, -0.9 -1.02" stroke="#000000" stroke-width="1" fill="none"></path></g><g transform="translate(829 103.84155255147198) rotate(0 -78.18490985133218 -0.57919675025218)"><path d="M-30.23 -13.13 C-21.51 -8.04, -11.12 -3.86, -1.02 -2.63 M-27.98 -11.11 C-18.28 -8.49, -9.49 -3.65, -0.9 -1.02" stroke="#000000" stroke-width="1" fill="none"></path></g></g><mask></mask><g stroke-linecap="round" transform="translate(477 73) rotate(0 93 32)"><path d="M16 0 M16 0 C56.82 0.88, 93.29 0.23, 170 0 M16 0 C54.81 -0.33, 94.4 -0.76, 170 0 M170 0 C180.68 -0.81, 185.48 5.85, 186 16 M170 0 C180.76 -0.47, 187.04 4.23, 186 16 M186 16 C187.65 25.03, 184.24 35.89, 186 48 M186 16 C185.42 23.66, 186.3 33.62, 186 48 M186 48 C184.9 58.74, 181.55 63.47, 170 64 M186 48 C183.96 58.73, 180.08 66.21, 170 64 M170 64 C112.5 64.7, 59.88 62.38, 16 64 M170 64 C117.92 63.91, 65.08 63.28, 16 64 M16 64 C6.27 64.22, 0.13 59.47, 0 48 M16 64 C4.06 62.08, -0.42 58.64, 0 48 M0 48 C1.29 34.6, 0.27 24.21, 0 16 M0 48 C-0.72 39.8, 1.02 30.9, 0 16 M0 16 C-1.01 5.1, 5.92 1.59, 16 0 M0 16 C0.1 3.38, 3.15 2.08, 16 0" stroke="#000000" stroke-width="1" fill="none"></path></g><g transform="translate(539.1499996185303 92.5) rotate(0 30.850000381469727 12.5)"><text x="30.850000381469727" y="0" font-family="Virgil, Segoe UI Emoji" font-size="20px" fill="#000000" text-anchor="middle" style="white-space: pre;" direction="ltr" dominant-baseline="text-before-edge">Server</text></g><g stroke-linecap="round" transform="translate(10 10) rotate(0 97 89)"><path d="M122.5 22.5 M122.5 22.5 C136.49 39.47, 155.44 53.54, 169.5 67.5 M122.5 22.5 C138.43 37.2, 153.64 54.38, 169.5 67.5 M169.5 67.5 C194.87 91.7, 192.14 88.64, 169.5 112.5 M169.5 67.5 C195.66 90.14, 195.02 89.38, 169.5 112.5 M169.5 112.5 C153.36 127.21, 137.36 144.68, 122.5 155.5 M169.5 112.5 C159.61 121.69, 147.2 131.43, 122.5 155.5 M122.5 155.5 C96.22 179.52, 97.66 176.37, 73.5 155.5 M122.5 155.5 C100.14 177.14, 98.31 179.24, 73.5 155.5 M73.5 155.5 C53.07 136.86, 32.28 121.02, 24.5 112.5 M73.5 155.5 C60.34 143.36, 46.74 132.5, 24.5 112.5 M24.5 112.5 C-0.06 88.63, -1.09 90.01, 24.5 67.5 M24.5 112.5 C2.27 90.72, -1.93 88.37, 24.5 67.5 M24.5 67.5 C44.07 48.58, 63.6 34.03, 73.5 22.5 M24.5 67.5 C40.87 52.64, 57.53 35.79, 73.5 22.5 M73.5 22.5 C98.63 -0.5, 99.86 0.11, 122.5 22.5 M73.5 22.5 C97.16 0.83, 98.15 -1.97, 122.5 22.5" stroke="#000000" stroke-width="1" fill="none"></path></g><g transform="translate(79.95000076293945 86.5) rotate(0 27.049999237060547 12.5)"><text x="27.049999237060547" y="0" font-family="Virgil, Segoe UI Emoji" font-size="20px" fill="#000000" text-anchor="middle" style="white-space: pre;" direction="ltr" dominant-baseline="text-before-edge">Client</text></g><g mask="url(#mask-tCro1QV63Kmd1raO1P4dh)" stroke-linecap="round"><g transform="translate(476 100.41974176559592) rotate(0 -134.17669998443301 -0.05527934339082208)"><path d="M0.4 1.11 C-44.07 0.77, -223.16 -1.11, -267.94 -1.22 M-0.85 0.65 C-45.35 0.37, -224.05 0.23, -268.75 -0.12" stroke="#000000" stroke-width="1" fill="none"></path></g><g transform="translate(476 100.41974176559592) rotate(0 -134.17669998443301 -0.05527934339082208)"><path d="M-26.03 11.55 C-23.57 8.85, -15.01 7.18, 0.48 2.04 M-27.97 11.96 C-19.56 8.03, -13.77 4.98, 0.12 1.18" stroke="#000000" stroke-width="1" fill="none"></path></g><g transform="translate(476 100.41974176559592) rotate(0 -134.17669998443301 -0.05527934339082208)"><path d="M-25.84 -8.97 C-23.28 -7.48, -14.76 -4.97, 0.48 2.04 M-27.78 -8.56 C-19.53 -7.19, -13.79 -4.94, 0.12 1.18" stroke="#000000" stroke-width="1" fill="none"></path></g></g><mask id="mask-tCro1QV63Kmd1raO1P4dh"><rect x="0" y="0" fill="#fff" width="844.2061350515128" height="200.8069922482631"></rect><rect x="249.3969324742436" y="87.72611652426241" fill="#000" width="185" height="25" opacity="1"></rect></mask><g transform="translate(249.3969324742436 87.72611652426235) rotate(0 92.42636754132337 12.638345897942742)"><text x="92.5" y="0" font-family="Virgil, Segoe UI Emoji" font-size="20px" fill="#000000" text-anchor="middle" style="white-space: pre;" direction="ltr" dominant-baseline="text-before-edge">https://my-site.com</text></g><g mask="url(#mask-Oo69g7DX8YGnT3-W0k7cY)" stroke-linecap="round"><g transform="translate(906 140.29428089654482) rotate(0 -398.2659831765387 75.94877600478495)"><path d="M-0.65 -0.74 C-68.83 24.53, -276.88 143.88, -409.67 152.13 C-542.45 160.38, -732.67 65.79, -797.33 48.74 M1.22 1.48 C-67.05 26.34, -277.28 142.17, -410.44 150.23 C-543.6 158.29, -733.28 66.94, -797.75 49.85" stroke="#000000" stroke-width="1" fill="none"></path></g><g transform="translate(906 140.29428089654482) rotate(0 -398.2659831765387 75.94877600478495)"><path d="M-768.98 50.13 C-774.69 50.6, -783.72 50.14, -796.57 51.1 M-768.34 49.24 C-777.76 50.22, -788.95 49.78, -796.79 50.46" stroke="#000000" stroke-width="1" fill="none"></path></g><g transform="translate(906 140.29428089654482) rotate(0 -398.2659831765387 75.94877600478495)"><path d="M-775.83 69.48 C-779.88 65.05, -787.16 59.65, -796.57 51.1 M-775.19 68.59 C-782 62.54, -790.68 55, -796.79 50.46" stroke="#000000" stroke-width="1" fill="none"></path></g></g><mask id="mask-Oo69g7DX8YGnT3-W0k7cY"><rect x="0" y="0" fill="#fff" width="1804" height="392"></rect><rect x="461" y="252" fill="#000" width="70" height="80" opacity="1"></rect></mask><g transform="translate(461 252) rotate(0 46.734016823461275 -35.756943098670234)"><text x="35" y="0" font-family="Virgil, Segoe UI Emoji" font-size="16px" fill="#000000" text-anchor="middle" style="white-space: pre;" direction="ltr" dominant-baseline="text-before-edge">Response</text><text x="35" y="20" font-family="Virgil, Segoe UI Emoji" font-size="16px" fill="#000000" text-anchor="middle" style="white-space: pre;" direction="ltr" dominant-baseline="text-before-edge">- HTML</text><text x="35" y="40" font-family="Virgil, Segoe UI Emoji" font-size="16px" fill="#000000" text-anchor="middle" style="white-space: pre;" direction="ltr" dominant-baseline="text-before-edge">-CSS</text><text x="35" y="60" font-family="Virgil, Segoe UI Emoji" font-size="16px" fill="#000000" text-anchor="middle" style="white-space: pre;" direction="ltr" dominant-baseline="text-before-edge">-JS</text></g></svg>