<svg version="1.1" xmlns="http://www.w3.org/2000/svg" viewBox="0 0 1093 215" width="1093" height="215">
  <!-- svg-source:excalidraw -->
  
  <defs>
    <style class="style-fonts">
      @font-face {
        font-family: "Virgil";
        src: url("https://excalidraw.com/Virgil.woff2");
      }
      @font-face {
        font-family: "Cascadia";
        src: url("https://excalidraw.com/Cascadia.woff2");
      }
    </style>
    
  </defs>
  <rect x="0" y="0" width="1093" height="215" fill="#ffffff"></rect><g stroke-linecap="round" transform="translate(946 10) rotate(0 68.5 88.5)"><path d="M32 0 M32 0 C61.3 0.28, 87.49 0.42, 105 0 M32 0 C56.61 0.18, 82.83 0.98, 105 0 M105 0 C126.86 0.24, 135.45 10.82, 137 32 M105 0 C126.13 1.62, 134.87 12.58, 137 32 M137 32 C135.74 70.37, 135.95 108.63, 137 145 M137 32 C137.87 60.97, 138.01 89.53, 137 145 M137 145 C136.21 165.88, 125.94 178.48, 105 177 M137 145 C136.64 168.45, 127.53 177.3, 105 177 M105 177 C84.22 178.15, 61.15 177.28, 32 177 M105 177 C84.72 175.93, 65.27 175.88, 32 177 M32 177 C9.01 177.3, 1.44 168.25, 0 145 M32 177 C12.54 175.29, -2.04 166.44, 0 145 M0 145 C-0.86 122.39, -1.1 96.84, 0 32 M0 145 C1.57 114.59, -0.03 83.98, 0 32 M0 32 C-1.72 9.06, 9.49 0.31, 32 0 M0 32 C1.11 12.3, 9.95 -1.84, 32 0" stroke="#000000" stroke-width="1" fill="none"></path></g><g transform="translate(1002.4499998092651 88.5) rotate(0 12.050000190734863 10)"><text x="12.050000190734863" y="0" font-family="Virgil, Segoe UI Emoji" font-size="16px" fill="#000000" text-anchor="middle" style="white-space: pre;" direction="ltr" dominant-baseline="text-before-edge">DB</text></g><g mask="url(#mask-ZuvUdEhoiSr9UjOcay6PY)" stroke-linecap="round"><g transform="translate(915.8912280701754 98.6469134860651) rotate(0 -117.1305238864199 0.753734218131882)"><path d="M-0.4 -1.03 C-39.69 -0.65, -196.81 0.76, -235.86 1.37 M1.6 1.04 C-37.33 1.65, -194.16 2.61, -233.65 2.54" stroke="#000000" stroke-width="1" fill="none"></path></g><g transform="translate(915.8912280701754 98.6469134860651) rotate(0 -117.1305238864199 0.753734218131882)"><path d="M-30.21 7.89 C-21.34 6.81, -10.95 4.83, -1.02 -2.63 M-27.97 9.92 C-18.24 5.04, -9.46 2.4, -0.9 -1.02" stroke="#000000" stroke-width="1" fill="none"></path></g><g transform="translate(915.8912280701754 98.6469134860651) rotate(0 -117.1305238864199 0.753734218131882)"><path d="M-30.41 -12.63 C-21.64 -7.68, -11.19 -3.65, -1.02 -2.63 M-28.16 -10.6 C-18.39 -8.17, -9.54 -3.5, -0.9 -1.02" stroke="#000000" stroke-width="1" fill="none"></path></g><g transform="translate(915.8912280701754 98.6469134860651) rotate(0 -117.1305238864199 0.753734218131882)"><path d="M-207.21 -9.41 C-215.01 -4.55, -221.13 -0.41, -234.28 0.94 M-204.97 -7.39 C-215.31 -4.73, -226.56 0.06, -234.15 2.55" stroke="#000000" stroke-width="1" fill="none"></path></g><g transform="translate(915.8912280701754 98.6469134860651) rotate(0 -117.1305238864199 0.753734218131882)"><path d="M-207.15 11.11 C-214.81 9.95, -220.95 8.07, -234.28 0.94 M-204.91 13.14 C-215.24 8.48, -226.52 5.97, -234.15 2.55" stroke="#000000" stroke-width="1" fill="none"></path></g></g><mask id="mask-ZuvUdEhoiSr9UjOcay6PY"><rect x="0" y="0" fill="#fff" width="1250.7824561403509" height="200.72180908308314"></rect><rect x="759.5956155609665" y="69.68436128457415" fill="#000" width="77.69999694824219" height="60" opacity="1"></rect></mask><g transform="translate(759.5956155609665 69.68436128457415) rotate(0 39.16508862278903 29.716286419622833)"><text x="38.849998474121094" y="0" font-family="Virgil, Segoe UI Emoji" font-size="16px" fill="#000000" text-anchor="middle" style="white-space: pre;" direction="ltr" dominant-baseline="text-before-edge">Builds</text><text x="38.849998474121094" y="20" font-family="Virgil, Segoe UI Emoji" font-size="16px" fill="#000000" text-anchor="middle" style="white-space: pre;" direction="ltr" dominant-baseline="text-before-edge">HTML</text><text x="38.849998474121094" y="40" font-family="Virgil, Segoe UI Emoji" font-size="16px" fill="#000000" text-anchor="middle" style="white-space: pre;" direction="ltr" dominant-baseline="text-before-edge">with data</text></g><g stroke-linecap="round" transform="translate(488 59) rotate(0 93 43.5)"><path d="M21.75 0 M21.75 0 C59.63 0.84, 93.17 0.18, 164.25 0 M21.75 0 C57.6 -0.26, 94.22 -0.69, 164.25 0 M164.25 0 C178.77 -0.81, 185.48 7.77, 186 21.75 M164.25 0 C178.84 -0.47, 187.04 6.15, 186 21.75 M186 21.75 C187.62 34.21, 184.2 48.5, 186 65.25 M186 21.75 C185.46 32.4, 186.35 45.35, 186 65.25 M186 65.25 C184.9 79.82, 179.64 86.47, 164.25 87 M186 65.25 C183.96 79.82, 178.16 89.21, 164.25 87 M164.25 87 C110.93 87.73, 62.48 85.4, 21.75 87 M164.25 87 C116.1 86.91, 67.19 86.27, 21.75 87 M21.75 87 C8.18 87.22, 0.13 80.56, 0 65.25 M21.75 87 C5.98 85.08, -0.42 79.73, 0 65.25 M0 65.25 C1.26 47.3, 0.23 32.36, 0 21.75 M0 65.25 C-0.63 54.08, 1.1 42.21, 0 21.75 M0 21.75 C-1.01 7.02, 7.84 1.59, 21.75 0 M0 21.75 C0.1 5.29, 5.07 2.08, 21.75 0" stroke="#000000" stroke-width="1" fill="none"></path></g><g transform="translate(550.1499996185303 90) rotate(0 30.850000381469727 12.5)"><text x="30.850000381469727" y="0" font-family="Virgil, Segoe UI Emoji" font-size="20px" fill="#000000" text-anchor="middle" style="white-space: pre;" direction="ltr" dominant-baseline="text-before-edge">Server</text></g><g stroke-linecap="round" transform="translate(10 27) rotate(0 97 89)"><path d="M122.5 22.5 M122.5 22.5 C136.49 39.47, 155.44 53.54, 169.5 67.5 M122.5 22.5 C138.43 37.2, 153.64 54.38, 169.5 67.5 M169.5 67.5 C194.87 91.7, 192.14 88.64, 169.5 112.5 M169.5 67.5 C195.66 90.14, 195.02 89.38, 169.5 112.5 M169.5 112.5 C153.36 127.21, 137.36 144.68, 122.5 155.5 M169.5 112.5 C159.61 121.69, 147.2 131.43, 122.5 155.5 M122.5 155.5 C96.22 179.52, 97.66 176.37, 73.5 155.5 M122.5 155.5 C100.14 177.14, 98.31 179.24, 73.5 155.5 M73.5 155.5 C53.07 136.86, 32.28 121.02, 24.5 112.5 M73.5 155.5 C60.34 143.36, 46.74 132.5, 24.5 112.5 M24.5 112.5 C-0.06 88.63, -1.09 90.01, 24.5 67.5 M24.5 112.5 C2.27 90.72, -1.93 88.37, 24.5 67.5 M24.5 67.5 C44.07 48.58, 63.6 34.03, 73.5 22.5 M24.5 67.5 C40.87 52.64, 57.53 35.79, 73.5 22.5 M73.5 22.5 C98.63 -0.5, 99.86 0.11, 122.5 22.5 M73.5 22.5 C97.16 0.83, 98.15 -1.97, 122.5 22.5" stroke="#000000" stroke-width="1" fill="none"></path></g><g transform="translate(79.95000076293945 103.5) rotate(0 27.049999237060547 12.5)"><text x="27.049999237060547" y="0" font-family="Virgil, Segoe UI Emoji" font-size="20px" fill="#000000" text-anchor="middle" style="white-space: pre;" direction="ltr" dominant-baseline="text-before-edge">Client</text></g><g mask="url(#mask-tCro1QV63Kmd1raO1P4dh)" stroke-linecap="round"><g transform="translate(481.203125 76.72035003928431) rotate(0 -149.59576414926616 2.664333354444608)"><path d="M0.4 1.11 C-49.2 1.58, -248.86 2.89, -298.78 3.58 M-0.85 0.65 C-50.49 1.17, -249.75 4.23, -299.59 4.68" stroke="#000000" stroke-width="1" fill="none"></path></g><g transform="translate(481.203125 76.72035003928431) rotate(0 -149.59576414926616 2.664333354444608)"><path d="M-25.86 12.03 C-23.44 9.24, -14.91 7.46, 0.48 2.04 M-27.8 12.44 C-19.42 8.38, -13.68 5.21, 0.12 1.18" stroke="#000000" stroke-width="1" fill="none"></path></g><g transform="translate(481.203125 76.72035003928431) rotate(0 -149.59576414926616 2.664333354444608)"><path d="M-26.01 -8.49 C-23.43 -7.1, -14.86 -4.68, 0.48 2.04 M-27.96 -8.08 C-19.66 -6.84, -13.87 -4.7, 0.12 1.18" stroke="#000000" stroke-width="1" fill="none"></path></g></g><mask id="mask-tCro1QV63Kmd1raO1P4dh"><rect x="0" y="0" fill="#fff" width="880.2473883811791" height="181.13524045356587"></rect><rect x="239.1809933094105" y="66.42779524642509" fill="#000" width="185" height="25" opacity="1"></rect></mask><g transform="translate(239.1809933094105 66.42779524642509) rotate(0 92.42636754132334 12.956888147303829)"><text x="92.5" y="0" font-family="Virgil, Segoe UI Emoji" font-size="20px" fill="#000000" text-anchor="middle" style="white-space: pre;" direction="ltr" dominant-baseline="text-before-edge">https://my-site.com</text></g><g mask="url(#mask-xaFujpWv0FH1zzqZbLqSq)" stroke-linecap="round"><g transform="translate(479.2197205952368 153.46446101244595) rotate(0 -153.54590823167274 2.9389810880134064)"><path d="M-0.69 1.1 C-51.91 1.95, -256.47 3.63, -307.85 4.06 M1.15 0.62 C-50.1 1.72, -256.43 4.61, -308.24 5.25" stroke="#000000" stroke-width="1" fill="none"></path></g><g transform="translate(479.2197205952368 153.46446101244595) rotate(0 -153.54590823167274 2.9389810880134064)"><path d="M-278.37 -3.62 C-288.66 -2.86, -296.51 -1.27, -308.54 5.01 M-281.17 -5.18 C-290.77 -1.86, -299.84 1.21, -309.13 5.32" stroke="#000000" stroke-width="1" fill="none"></path></g><g transform="translate(479.2197205952368 153.46446101244595) rotate(0 -153.54590823167274 2.9389810880134064)"><path d="M-278.09 16.9 C-288.27 12.34, -296.2 8.62, -308.54 5.01 M-280.9 15.34 C-290.49 11.65, -299.66 7.7, -309.13 5.32" stroke="#000000" stroke-width="1" fill="none"></path></g></g><mask id="mask-xaFujpWv0FH1zzqZbLqSq"><rect x="0" y="0" fill="#fff" width="888.1286332711445" height="258.19114659979067"></rect><rect x="265.827764257283" y="115.82780380611831" fill="#000" width="117.875" height="80" opacity="1"></rect></mask><g transform="translate(265.827764257283 115.82780380611825) rotate(0 59.8460481062811 40.57563829434105)"><text x="58.9375" y="0" font-family="Virgil, Segoe UI Emoji" font-size="16px" fill="#000000" text-anchor="middle" style="white-space: pre;" direction="ltr" dominant-baseline="text-before-edge">Response</text><text x="58.9375" y="20" font-family="Virgil, Segoe UI Emoji" font-size="16px" fill="#000000" text-anchor="middle" style="white-space: pre;" direction="ltr" dominant-baseline="text-before-edge">-Dynamic HTML</text><text x="58.9375" y="40" font-family="Virgil, Segoe UI Emoji" font-size="16px" fill="#000000" text-anchor="middle" style="white-space: pre;" direction="ltr" dominant-baseline="text-before-edge">- CSS</text><text x="58.9375" y="60" font-family="Virgil, Segoe UI Emoji" font-size="16px" fill="#000000" text-anchor="middle" style="white-space: pre;" direction="ltr" dominant-baseline="text-before-edge">- JS</text></g></svg>